<svg width="50" height="50" viewBox="0 0 50 50" fill="none" xmlns="http://www.w3.org/2000/svg">
<g clip-path="url(#clip0_528_2)">
<path d="M19.051 20.8622C20.3286 20.8622 21.3677 19.8227 21.3677 18.5452C21.3677 17.2676 20.3286 16.2285 19.051 16.2285C17.7735 16.2285 16.7344 17.2676 16.7344 18.5452C16.7344 19.8227 17.7735 20.8622 19.051 20.8622Z" fill="#D80027"/>
<path d="M30.9495 29.1378C29.6723 29.1378 28.6328 30.1773 28.6328 31.4549C28.6328 32.7324 29.6723 33.7715 30.9495 33.7715C32.227 33.7715 33.2661 32.7324 33.2661 31.4549C33.2661 30.1773 32.227 29.1378 30.9495 29.1378V29.1378Z" fill="#D80027"/>
<path d="M47.1733 28.5126L50 25L47.1733 21.4874L48.7843 17.2726L45.0043 14.8079L45.2263 10.3024L40.8726 9.12743L39.6976 4.77371L35.1921 4.99573L32.7274 1.21574L28.5122 2.82669L25 0L21.4878 2.82669L17.2726 1.21574L14.8079 4.99573L10.3024 4.77371L9.12743 9.12743L4.77371 10.3024L4.99573 14.8075L1.21574 17.2726L2.82669 21.4874L0 25L2.82669 28.5126L1.21574 32.7274L4.99573 35.1921L4.77371 39.6976L9.12743 40.8726L10.3024 45.2263L14.8079 45.0043L17.2729 48.7843L21.4878 47.1733L25 50L28.5122 47.1733L32.7274 48.7843L35.1921 45.0043L39.6976 45.2263L40.8726 40.8726L45.2263 39.6976L45.0043 35.1925L48.7843 32.7274L47.1733 28.5126ZM19.051 13.2774C21.9555 13.2774 24.3187 15.6406 24.3187 18.5452C24.3187 21.45 21.9559 23.8132 19.051 23.8132C16.1465 23.8132 13.7829 21.45 13.7829 18.5452C13.7829 15.6406 16.1465 13.2774 19.051 13.2774ZM15.6414 36.496L13.5548 34.4093L34.0412 13.9229L36.1279 16.0095L15.6414 36.496ZM30.949 36.7226C28.0445 36.7226 25.6813 34.3594 25.6813 31.4548C25.6813 28.55 28.0445 26.1868 30.949 26.1868C33.8539 26.1868 36.2171 28.55 36.2171 31.4548C36.2171 34.3594 33.8539 36.7226 30.949 36.7226V36.7226Z" fill="#D80027"/>
</g>
<defs>
<clipPath id="clip0_528_2">
<rect width="50" height="50" fill="white"/>
</clipPath>
</defs>
</svg>
