<svg width="80" height="80" viewBox="0 0 80 80" fill="none" xmlns="http://www.w3.org/2000/svg">
<g clip-path="url(#clip0_513_2)">
<path d="M79.4854 43.5625L73.6066 34.2339C73.1409 33.4943 72.9839 32.6013 73.1685 31.7474L75.5023 20.9707C75.8662 19.2913 74.8946 17.6102 73.2587 17.0853L62.759 13.7181C61.9268 13.451 61.2323 12.8684 60.825 12.0955L55.6858 2.34036C54.8853 0.819583 53.0607 0.155926 51.4698 0.805335L41.2614 4.97551C40.4526 5.30518 39.5462 5.30518 38.7373 4.97551L28.5307 0.806119C26.9397 0.15671 25.1151 0.820367 24.3138 2.34114L19.1746 12.0953C18.7673 12.8683 18.0728 13.4509 17.2406 13.718L6.74109 17.0851C5.10424 17.6101 4.13352 19.2913 4.49744 20.9706L6.83037 31.7473C7.01573 32.6011 6.85795 33.4943 6.3922 34.2338L0.514194 43.5625C-0.402272 45.0165 -0.0642341 46.928 1.2938 47.9814L10.008 54.7366C10.6991 55.2724 11.1523 56.0571 11.2709 56.9235L12.7642 67.848C12.9962 69.5507 14.4845 70.7987 16.2007 70.7319L27.2186 70.3054C28.0917 70.2711 28.9431 70.5817 29.5917 71.1684L37.7566 78.5771C39.0296 79.7315 40.9719 79.7315 42.2439 78.5771L50.4098 71.1684C51.0567 70.5808 51.9088 70.2711 52.7828 70.3054L63.7999 70.7319C65.5177 70.7987 67.0043 69.55 67.2371 67.848L68.7305 56.9235C68.849 56.0571 69.3022 55.2725 69.9925 54.7366L78.7067 47.9814C80.0647 46.928 80.4019 45.0165 79.4854 43.5625ZM30.7493 53.3226L21.0193 46.5265L25.0184 55.795L22.3532 56.9452L16.2199 42.7336L19.0111 41.5283L28.9248 48.5088L24.8281 39.0183L27.4933 37.8672L33.6283 52.0796L30.7493 53.3226ZM36.6622 50.7701L30.5289 36.5585L41.0669 32.0094L42.1037 34.4141L34.4345 37.7236L35.7943 40.8738L42.9301 37.7938L43.9634 40.1885L36.8276 43.2677L38.497 47.1357L46.4366 43.7093L47.4699 46.1041L36.6622 50.7701ZM60.6857 40.4024L53.2694 30.9979L55.033 42.8406L51.9213 44.1836L42.3957 31.4369L45.3321 30.1682L51.6883 39.0059L50.0732 28.1232L53.487 26.65L60.2623 35.502L58.1589 24.6335L61.0478 23.3864L63.7296 39.0887L60.6857 40.4024Z" fill="#EB4F28"/>
</g>
<defs>
<clipPath id="clip0_513_2">
<rect width="80" height="80" fill="white"/>
</clipPath>
</defs>
</svg>
